<svg width="24" height="15" viewBox="0 0 24 15" fill="none" xmlns="http://www.w3.org/2000/svg">
    <path d="M2.40797 2H21.592L12 12.962L2.40797 2ZM0.901966 3.318L10.494 14.278C10.6817 14.4928 10.9132 14.665 11.1729 14.783C11.4327 14.9009 11.7147 14.962 12 14.962C12.2852 14.962 12.5672 14.9009 12.827 14.783C13.0867 14.665 13.3182 14.4928 13.506 14.278L23.098 3.318C24.23 2.024 23.31 7.35412e-07 21.592 7.35412e-07H2.40797C2.02348 -0.000328919 1.64704 0.110176 1.32374 0.318282C1.00044 0.526388 0.743979 0.823274 0.585067 1.17339C0.426156 1.5235 0.371531 1.912 0.427734 2.29236C0.483938 2.67271 0.648587 3.02881 0.901966 3.318Z" fill="#707CBD"/>
</svg>
